<svg xmlns="http://www.w3.org/2000/svg" width="41.175" height="41.175" viewBox="0 0 41.175 41.175">
  <path id="Icon_ionic-ios-paper" data-name="Icon ionic-ios-paper" d="M10.9,6.542V38.414A1.39,1.39,0,0,1,9.512,39.8h0a1.39,1.39,0,0,1-1.386-1.386V9.71H6.542a3.164,3.164,0,0,0-3.167,3.167V41.383A3.164,3.164,0,0,0,6.542,44.55h34.95a3.06,3.06,0,0,0,3.058-3.058V6.542a3.164,3.164,0,0,0-3.167-3.167l-27.516.2A2.837,2.837,0,0,0,10.9,6.542ZM17.43,9.71h8.314A1.39,1.39,0,0,1,27.13,11.1h0a1.39,1.39,0,0,1-1.386,1.386H17.43A1.39,1.39,0,0,1,16.044,11.1h0A1.39,1.39,0,0,1,17.43,9.71Zm0,15.837H32.079a1.39,1.39,0,0,1,1.386,1.386h0a1.39,1.39,0,0,1-1.386,1.386H17.43a1.39,1.39,0,0,1-1.386-1.386h0A1.39,1.39,0,0,1,17.43,25.546Zm19.4,10.69H17.43a1.39,1.39,0,0,1-1.386-1.386h0a1.39,1.39,0,0,1,1.386-1.386h19.4a1.39,1.39,0,0,1,1.386,1.386h0A1.39,1.39,0,0,1,36.83,36.236Zm0-15.837H17.43a1.39,1.39,0,0,1-1.386-1.386h0a1.39,1.39,0,0,1,1.386-1.386h19.4a1.39,1.39,0,0,1,1.386,1.386h0A1.39,1.39,0,0,1,36.83,20.4Z" transform="translate(-3.375 -3.375)"/>
</svg>
