<svg xmlns="http://www.w3.org/2000/svg" width="41.3" height="41.3" viewBox="0 0 41.3 41.3">
  <path id="Icon_awesome-linkedin" data-name="Icon awesome-linkedin" d="M38.35,2.25H2.941A2.963,2.963,0,0,0,0,5.228V40.573A2.963,2.963,0,0,0,2.941,43.55H38.35a2.971,2.971,0,0,0,2.95-2.978V5.228A2.971,2.971,0,0,0,38.35,2.25ZM12.482,37.65H6.361V17.94h6.131V37.65Zm-3.061-22.4A3.549,3.549,0,1,1,12.971,11.7a3.551,3.551,0,0,1-3.549,3.549Zm26.006,22.4H29.307V28.063c0-2.286-.046-5.227-3.18-5.227-3.19,0-3.678,2.489-3.678,5.061V37.65H16.327V17.94H22.2v2.692h.083a6.447,6.447,0,0,1,5.8-3.18c6.2,0,7.347,4.084,7.347,9.394Z" transform="translate(0 -2.25)"/>
</svg>
