<svg xmlns="http://www.w3.org/2000/svg" width="41.794" height="40.75" viewBox="0 0 41.794 40.75">
  <path id="Icon_awesome-github" data-name="Icon awesome-github" d="M13.979,33.374c0,.169-.194.3-.438.3-.278.025-.472-.11-.472-.3,0-.169.194-.3.438-.3C13.76,33.046,13.979,33.18,13.979,33.374Zm-2.621-.379c-.059.169.11.362.362.413a.4.4,0,0,0,.522-.169c.051-.169-.11-.362-.362-.438A.433.433,0,0,0,11.359,32.995Zm3.724-.143c-.244.059-.413.219-.388.413.025.169.244.278.5.219s.413-.219.388-.388S15.327,32.826,15.083,32.852ZM20.627.562A20.2,20.2,0,0,0,0,21.122,21.125,21.125,0,0,0,14.282,41.278c1.079.194,1.458-.472,1.458-1.02,0-.522-.025-3.4-.025-5.174,0,0-5.9,1.264-7.137-2.511,0,0-.961-2.452-2.342-3.084,0,0-1.93-1.323.135-1.3a4.448,4.448,0,0,1,3.253,2.174c1.845,3.253,4.938,2.317,6.143,1.761a4.683,4.683,0,0,1,1.348-2.84c-4.71-.522-9.463-1.2-9.463-9.311A6.386,6.386,0,0,1,9.64,15.013a7.961,7.961,0,0,1,.219-5.721c1.761-.548,5.814,2.275,5.814,2.275a19.906,19.906,0,0,1,10.583,0s4.053-2.831,5.814-2.275a7.957,7.957,0,0,1,.219,5.721,6.55,6.55,0,0,1,2.174,4.963c0,8.131-4.963,8.78-9.673,9.311a4.983,4.983,0,0,1,1.432,3.91c0,2.84-.025,6.353-.025,7.044,0,.548.388,1.213,1.458,1.02A20.931,20.931,0,0,0,41.794,21.122C41.794,9.435,32.314.562,20.627.562ZM8.19,29.624c-.11.084-.084.278.059.438.135.135.329.194.438.084.11-.084.084-.278-.059-.438C8.494,29.574,8.3,29.515,8.19,29.624Zm-.91-.683c-.059.11.025.244.194.329a.251.251,0,0,0,.362-.059c.059-.11-.025-.244-.194-.329C7.474,28.832,7.339,28.858,7.28,28.942Zm2.73,3c-.135.11-.084.362.11.522.194.194.438.219.548.084.11-.11.059-.362-.11-.522C10.373,31.832,10.12,31.807,10.01,31.942ZM9.05,30.7c-.135.084-.135.3,0,.5s.362.278.472.194a.384.384,0,0,0,0-.522C9.4,30.678,9.185,30.593,9.05,30.7Z" transform="translate(0 -0.563)"/>
</svg>
